<?xml version="1.0" encoding="UTF-8"?>
<svg id="Layer_1" data-name="Layer 1" xmlns="http://www.w3.org/2000/svg" viewBox="0 0 2194.25 1080">
  <defs>
    <style>
      .cls-1, .cls-2 {
        stroke: #90622f;
        stroke-width: 10px;
      }

      .cls-1, .cls-2, .cls-3 {
        fill: #f3f3f3;
      }

      .cls-2 {
        stroke-miterlimit: 10;
      }

      .cls-4 {
        fill: #48565e;
      }
    </style>
  </defs>
  <g id="Layer_2" data-name="Layer 2">
    <rect class="cls-4" x="274.25" width="1920" height="1080"/>
  </g>
  <g>
    <polygon class="cls-3" points="10.32 1091 10.32 -10 2227.08 -10 1364.36 506.3 2228.78 1091 10.32 1091"/>
    <path class="cls-1" d="M2228.78-15H-11.05v1111h2239.83c-290.52-196.5-580.93-393-871.45-589.5C1647.85,332.7,1938.37,158.9,2228.78-15h0Z"/>
  </g>
  <polyline class="cls-2" points="1535.25 406.7 1695.55 303 2089.05 214 1976.55 265.2 2150.25 245 2027.75 282.7 2160.25 290.8 2084.65 310.4 2141.45 328.6 2075.25 348.8 2098.85 366.3 2059.05 379.8 2061.05 406.7 2035.15 406.7 2030.25 445.8 2004.05 458 1969.15 458 1982.75 483.6 1957.35 483.6 1940.25 503.8 1919.05 532.1 1898.35 532.1 1891.55 560.4 1872.85 586 1847.75 586 1847.75 608.6 1825.25 608.6 1820.35 634.5 1815.35 660.1 1794.65 660.1 1769.05 672.3 1749.85 692.5 1728.65 692.5 1705.95 678 1692.85 669.6 1697.95 700.2 1662.55 679.8 1660.35 710 1604.05 675 1577.85 641.3 1563.55 692.5 1535.25 649.3"/>
  <ellipse class="cls-3" cx="1527.25" cy="397.5" rx="187" ry="243.5"/>
  <ellipse class="cls-3" cx="1438.75" cy="642.5" rx="193.5" ry="243.5"/>
</svg>